<?xml version="1.0" encoding="UTF-8"?>
<svg version="1.1" xmlns="http://www.w3.org/2000/svg" width="167" height="63">
<path d="M0 0 C55.11 0 110.22 0 167 0 C167 20.79 167 41.58 167 63 C111.89 63 56.78 63 0 63 C0 42.21 0 21.42 0 0 Z " fill="#FBFBFC" transform="translate(0,0)"/>
<path d="M0 0 C5.67507225 2.00296668 9.30675089 5.61350179 12 11 C12.91576787 19.32996542 11.04730403 26.48817513 6.125 33.25 C3.59206627 36.39259768 1.05527135 39.35760316 -2 42 C-5 42 -5 42 -7.4375 39.8125 C-8.7059375 38.4203125 -8.7059375 38.4203125 -10 37 C-11.0209375 35.88625 -11.0209375 35.88625 -12.0625 34.75 C-17.0380295 27.68795813 -20.06952506 19.67503657 -19 11 C-14.84474736 2.84339297 -9.05292737 -0.91375342 0 0 Z " fill="#9208EB" transform="translate(19,6)"/>
<path d="M0 0 C2.31 0 4.62 0 7 0 C10.44419134 12.48519362 10.44419134 12.48519362 10 19 C10.66 19 11.32 19 12 19 C12.12375 17.700625 12.2475 16.40125 12.375 15.0625 C13.80213904 2.19786096 13.80213904 2.19786096 16 0 C17.98 0 19.96 0 22 0 C22 10.23 22 20.46 22 31 C20.35 31 18.7 31 17 31 C16.67 27.04 16.34 23.08 16 19 C15.01 22.96 14.02 26.92 13 31 C11.68 31 10.36 31 9 31 C8.01 26.38 7.02 21.76 6 17 C5.67 21.62 5.34 26.24 5 31 C3.35 31 1.7 31 0 31 C0 20.77 0 10.54 0 0 Z " fill="#090909" transform="translate(42,15)"/>
<path d="M0 0 C1.65 0 3.3 0 5 0 C6.98 4.29 8.96 8.58 11 13 C11.33 8.71 11.66 4.42 12 0 C13.65 0 15.3 0 17 0 C17 9.24 17 18.48 17 28 C15.35 27.67 13.7 27.34 12 27 C9.48757573 23.2013889 7.88566296 19.16599956 6 15 C5.67 19.29 5.34 23.58 5 28 C3.35 28 1.7 28 0 28 C0 18.76 0 9.52 0 0 Z " fill="#121212" transform="translate(90,19)"/>
<path d="M0 0 C1.4540625 0.0309375 1.4540625 0.0309375 2.9375 0.0625 C6.18994638 8.84410523 7.99518893 17.92279256 9.9375 27.0625 C8.2875 27.0625 6.6375 27.0625 4.9375 27.0625 C4.6075 25.4125 4.2775 23.7625 3.9375 22.0625 C1.2975 22.0625 -1.3425 22.0625 -4.0625 22.0625 C-4.0625 23.7125 -4.0625 25.3625 -4.0625 27.0625 C-5.7125 27.0625 -7.3625 27.0625 -9.0625 27.0625 C-8.75624645 20.69242612 -7.6084912 14.66743013 -6.0625 8.5 C-5.88428711 7.78521484 -5.70607422 7.07042969 -5.52246094 6.33398438 C-3.90915329 0.07977864 -3.90915329 0.07977864 0 0 Z " fill="#0D0D0D" transform="translate(77.0625,18.9375)"/>
<path d="M0 0 C5.28 0 10.56 0 16 0 C15.26272525 3.68637377 14.64603292 6.13018135 13.15234375 9.42578125 C12.79462891 10.22177734 12.43691406 11.01777344 12.06835938 11.83789062 C11.69517578 12.65451172 11.32199219 13.47113281 10.9375 14.3125 C10.56044922 15.14845703 10.18339844 15.98441406 9.79492188 16.84570312 C8.8679022 18.89922771 7.93457235 20.94990166 7 23 C9.97 23 12.94 23 16 23 C15.67 24.65 15.34 26.3 15 28 C9.72 28 4.44 28 -1 28 C1.39707314 19.82175048 5.08858772 12.53348722 9 5 C6.03 5 3.06 5 0 5 C0 3.35 0 1.7 0 0 Z " fill="#151515" transform="translate(111,19)"/>
<path d="M0 0 C2.4375 1.5625 2.4375 1.5625 4 4 C4.72468526 8.42863214 4.49454049 10.28066838 1.9375 14 C-1 16 -1 16 -4.625 16.0625 C-8 15 -8 15 -9.9375 13.375 C-11.43699866 10.02317947 -11.45377473 7.63019782 -11 4 C-8.11188513 -0.5054592 -5.11821063 -0.73117295 0 0 Z " fill="#FAF4FE" transform="translate(19,14)"/>
<path d="M0 0 C1.65 0 3.3 0 5 0 C5 7.26 5 14.52 5 22 C7.64 22 10.28 22 13 22 C13 23.98 13 25.96 13 28 C8.71 28 4.42 28 0 28 C0 18.76 0 9.52 0 0 Z " fill="#0F0F0F" transform="translate(140,19)"/>
<path d="M0 0 C1.98 0 3.96 0 6 0 C6 9.24 6 18.48 6 28 C4.35 28 2.7 28 1 28 C0 27 0 27 -0.11352539 24.40795898 C-0.10828857 23.28204346 -0.10305176 22.15612793 -0.09765625 20.99609375 C-0.09443359 19.78115234 -0.09121094 18.56621094 -0.08789062 17.31445312 C-0.07951172 16.03505859 -0.07113281 14.75566406 -0.0625 13.4375 C-0.05798828 12.15423828 -0.05347656 10.87097656 -0.04882812 9.54882812 C-0.03699545 6.36583978 -0.02051068 3.18294238 0 0 Z " fill="#242424" transform="translate(130,19)"/>
<path d="M0 0 C3.10408807 -0.05807043 6.2080364 -0.09361914 9.3125 -0.125 C10.19357422 -0.14175781 11.07464844 -0.15851562 11.98242188 -0.17578125 C12.82998047 -0.18222656 13.67753906 -0.18867187 14.55078125 -0.1953125 C15.72120972 -0.21102295 15.72120972 -0.21102295 16.9152832 -0.22705078 C19 0 19 0 22 2 C21 3 21 3 18.95874023 3.11352539 C18.08419189 3.10828857 17.20964355 3.10305176 16.30859375 3.09765625 C15.36435547 3.09443359 14.42011719 3.09121094 13.44726562 3.08789062 C12.45404297 3.07951172 11.46082031 3.07113281 10.4375 3.0625 C9.44041016 3.05798828 8.44332031 3.05347656 7.41601562 3.04882812 C4.94395151 3.03700007 2.47200482 3.02051849 0 3 C0 2.01 0 1.02 0 0 Z " fill="#A332EE" transform="translate(5,51)"/>
<path d="M0 0 C1.64826111 2.96687001 2.44271087 5.65626525 3 9 C1.35 9 -0.3 9 -2 9 C-1.125 1.125 -1.125 1.125 0 0 Z " fill="#CDCDCD" transform="translate(77,28)"/>
</svg>
